<svg width="52" height="46" viewBox="0 0 52 46" fill="none" xmlns="http://www.w3.org/2000/svg">
<g filter="url(#filter0_d_27_932)">
<path d="M47.783 27.3352C47.9147 26.37 47.9844 25.3856 47.9844 24.3848C47.9844 18.3663 45.5099 12.8613 41.4824 8.91314C41.4568 8.88544 41.4304 8.85943 41.4023 8.83509C38.3374 5.86127 34.3863 3.78458 29.9463 3.05697C29.588 1.44984 28.1558 0.245117 26.448 0.245117C24.7384 0.245117 23.305 1.44984 22.9463 3.05655C20.5796 3.44302 18.3103 4.22057 16.1904 5.37535C15.6714 5.65817 15.4792 6.30984 15.7612 6.83016C15.9555 7.1881 16.323 7.39119 16.7028 7.39119C16.8753 7.39119 17.0502 7.34923 17.2126 7.26069C19.0707 6.24857 21.0555 5.55788 23.1254 5.20121C23.6609 6.51461 24.9483 7.4428 26.448 7.4428C27.946 7.4428 29.2317 6.51503 29.7671 5.20163C32.7267 5.71314 35.4412 6.89185 37.7638 8.57073H33.6754C31.4725 8.57073 29.6803 10.3688 29.6803 12.5789C29.6803 14.7874 31.4725 16.5842 33.6754 16.5842C34.6968 16.5842 35.5272 17.42 35.5272 18.4468C35.5272 19.4741 34.6968 20.3095 33.6754 20.3095H33.0565C30.8552 20.3095 29.0643 22.1063 29.0643 24.3152C29.0643 26.5253 30.8552 28.3233 33.0565 28.3233H45.4449C43.6258 37.1773 35.7991 43.8546 26.448 43.8546C22.188 43.8546 18.2449 42.4682 15.0415 40.123H19.1412C21.3442 40.123 23.1364 38.3253 23.1364 36.1148C23.1364 33.9063 21.3442 32.1096 19.1412 32.1096C18.1198 32.1096 17.2894 31.2741 17.2894 30.2469C17.2894 29.2213 18.1198 28.3871 19.1412 28.3871H19.7572C21.9602 28.3871 23.7523 26.5891 23.7523 24.379C23.7523 22.1684 21.9602 20.3704 19.7572 20.3704H7.45737C8.05743 17.4788 9.3104 14.7697 11.1668 12.3901C11.5306 11.9235 11.4483 11.2491 10.9826 10.8841C10.5172 10.519 9.84457 10.6017 9.48035 11.0687C6.48932 14.9036 4.9082 19.5085 4.9082 24.3848C4.9082 30.3648 7.34114 35.7854 11.2654 39.7025C11.3275 39.7831 11.4001 39.8544 11.4823 39.9148C15.3604 43.6796 20.6388 46.0001 26.448 46.0001C37.2783 46.0001 46.2652 37.9347 47.7632 27.474C47.7729 27.4287 47.7792 27.3826 47.783 27.3352ZM7.13637 22.5163H19.7572C20.7798 22.5163 21.6119 23.3517 21.6119 24.379C21.6119 25.4058 20.7798 26.2416 19.7572 26.2416H19.1412C16.9399 26.2416 15.1489 28.038 15.1489 30.2469C15.1489 32.457 16.9399 34.2551 19.1412 34.2551C20.1638 34.2551 20.9959 35.0892 20.9959 36.1148C20.9959 37.1416 20.1638 37.9775 19.1412 37.9775H12.5733C9.15724 34.4661 7.04867 29.6682 7.04867 24.3848C7.04867 23.7562 7.07888 23.1331 7.13637 22.5163ZM26.448 5.29688C25.649 5.29688 24.9995 4.64438 24.9995 3.84249C24.9995 3.04186 25.649 2.39062 26.448 2.39062C27.2448 2.39062 27.8931 3.04186 27.8931 3.84249C27.8931 4.64438 27.2448 5.29688 26.448 5.29688ZM33.0565 26.1774C32.0352 26.1774 31.2047 25.342 31.2047 24.3148C31.2047 23.2896 32.0352 22.455 33.0565 22.455H33.6754C35.8768 22.455 37.6677 20.657 37.6677 18.4468C37.6677 16.2367 35.8768 14.4387 33.6754 14.4387C32.6528 14.4387 31.8207 13.6045 31.8207 12.5789C31.8207 11.5517 32.6528 10.7162 33.6754 10.7162H40.2559C43.7248 14.2515 45.8439 19.0981 45.8439 24.3848C45.8439 24.9891 45.815 25.587 45.7608 26.1774H33.0565Z" fill="white"/>
</g>
<defs>
<filter id="filter0_d_27_932" x="0.908203" y="0.245117" width="51.0762" height="53.7549" filterUnits="userSpaceOnUse" color-interpolation-filters="sRGB">
<feFlood flood-opacity="0" result="BackgroundImageFix"/>
<feColorMatrix in="SourceAlpha" type="matrix" values="0 0 0 0 0 0 0 0 0 0 0 0 0 0 0 0 0 0 127 0" result="hardAlpha"/>
<feOffset dy="4"/>
<feGaussianBlur stdDeviation="2"/>
<feComposite in2="hardAlpha" operator="out"/>
<feColorMatrix type="matrix" values="0 0 0 0 0 0 0 0 0 0 0 0 0 0 0 0 0 0 0.25 0"/>
<feBlend mode="normal" in2="BackgroundImageFix" result="effect1_dropShadow_27_932"/>
<feBlend mode="normal" in="SourceGraphic" in2="effect1_dropShadow_27_932" result="shape"/>
</filter>
</defs>
</svg>
